<?xml version="1.0" encoding="UTF-8"?>
<svg id="Capa_2" data-name="Capa 2" xmlns="http://www.w3.org/2000/svg" viewBox="0 0 881.21 725.33">
  <g id="Layer_1" data-name="Layer 1">
    <g>
      <g>
        <path class="cls-1" d="M80.36,431.39H29.92c.21-16.96-2.55-72.12,18.68-132.89,26.75-76.56,69.62-97.02,69.62-97.02,0,0-22.61,40.77-31.38,101.1-7.53,51.84-6.83,112.71-6.48,128.82Z"/>
        <polygon class="cls-1" points="106.76 476.23 158.55 476.23 158.55 511.17 106.76 535.83 106.76 476.23"/>
        <polygon class="cls-1" points="106.76 557.41 158.55 532.75 158.55 562.65 96.19 562.65 106.76 557.41"/>
        <polygon class="cls-1" points="50.46 562.65 35.05 562.65 35.05 476.23 86.84 476.23 86.84 545.32 50.46 562.65"/>
        <rect class="cls-1" x="0" y="578.14" width="158.55" height="31.07"/>
        <path class="cls-1" d="M157.35,464.81H13.15c-5.5,0-9.96-4.56-9.96-10.19,0-5.63,4.46-10.19,9.96-10.19h144.21v20.38Z"/>
        <rect class="cls-1" x="139.83" y="165.6" width="18.33" height="11.82"/>
        <path class="cls-1" d="M123.59,148.31c0-3.29,2.6-5.95,5.81-5.95h28.75v11.89h-28.75c-3.21,0-5.81-2.66-5.81-5.94Z"/>
        <path class="cls-1" d="M125.82,84.4c0-3.28,2.6-5.94,5.81-5.94h26.52v11.89h-26.52c-3.21,0-5.81-2.66-5.81-5.94Z"/>
        <rect class="cls-1" x="139.83" y="98.84" width="18.33" height="36.19"/>
        <path class="cls-1" d="M153.64,67.23c-3.42-2.01-5.44-5.84-5.44-9.88V9.94c0-4.3,2.6-8.27,6.6-9.55,1.18-.38,2.18-.44,3.17-.34.11,0,.19.1.19.21v67.95c-1.36.15-2.71.08-4.52-.98Z"/>
        <path class="cls-1" d="M104.81,386.94c0-26.68,2.03-106.21,18.79-146.67,16.76-40.45,34.95-48.58,34.95-48.58v239.7h-53.74s0-17.77,0-44.45Z"/>
      </g>
      <g>
        <path class="cls-2" d="M41.99,708.72c0,11.04-6.17,16.58-18.52,16.61-12.31,0-18.47-5.54-18.47-16.61v-48.27c0-11.04,6.16-16.56,18.47-16.56s18.52,5.52,18.52,16.56v10.6h-12.87v-10.6c0-3.55-1.87-5.32-5.6-5.32h-.09c-3.7,0-5.55,1.77-5.55,5.32v48.27c0,3.55,1.87,5.32,5.6,5.32s5.64-1.77,5.64-5.32v-10.6h12.87v10.6Z"/>
        <path class="cls-2" d="M88.53,708.72c0,11.04-6.17,16.58-18.52,16.61-12.31,0-18.47-5.54-18.47-16.61v-48.27c0-11.04,6.16-16.56,18.47-16.56s18.52,5.52,18.52,16.56v48.27ZM75.65,660.45c0-3.55-1.87-5.32-5.6-5.32h-.09c-3.7,0-5.55,1.77-5.55,5.32v48.27c0,3.55,1.87,5.32,5.6,5.32s5.64-1.77,5.64-5.32v-48.27Z"/>
        <path class="cls-2" d="M99.45,644.98h12.87l12.19,45.77v-45.77h11.92v78.89h-12.87l-11.74-44.31v44.31h-12.37v-78.89Z"/>
        <path class="cls-2" d="M184.34,708.72c0,11.04-6.17,16.58-18.52,16.61-12.31,0-18.47-5.54-18.47-16.61v-48.27c0-11.04,6.16-16.56,18.47-16.56s18.52,5.52,18.52,16.56v10.6h-12.87v-10.6c0-3.55-1.87-5.32-5.6-5.32h-.09c-3.7,0-5.55,1.77-5.55,5.32v48.27c0,3.55,1.87,5.32,5.6,5.32s5.64-1.77,5.64-5.32v-18.51h-5.6v-11.24h18.47v29.75Z"/>
        <path class="cls-2" d="M195.26,644.98h18.74c11.43,0,17.15,5.54,17.15,16.61v11.83c0,6.95-3.38,11.52-10.14,13.74l14.47,36.71h-14.1l-11.6-34.71-1.64.23v34.48h-12.87v-78.89ZM208.13,656.17v22.61h2.96c1.79,0,3.02-.11,3.69-.32,2.33-.82,3.5-2.5,3.5-5.05v-11.83c0-3.61-1.87-5.42-5.6-5.42h-4.55Z"/>
        <path class="cls-2" d="M240.3,644.98h33.39v11.19h-20.52v22.61h17.65v11.28h-17.65v22.57h20.52v11.24h-33.39v-78.89Z"/>
        <path class="cls-2" d="M282.33,660.45c0-11.04,6.16-16.56,18.47-16.56s18.52,5.52,18.52,16.56v10.6h-12.87v-10.6c0-3.55-1.87-5.32-5.6-5.32h-.09c-3.7,0-5.55,1.77-5.55,5.32v7.14c0,3.52,4.02,7.82,12.06,12.92,8.04,5.06,12.06,11.14,12.06,18.24v9.96c0,11.07-6.16,16.61-18.47,16.61-12.34-.03-18.52-5.56-18.52-16.61v-10.6h12.87v10.6c0,3.55,1.88,5.32,5.64,5.32s5.6-1.77,5.6-5.32v-9.01c0-3.82-4.02-8.28-12.06-13.38-8.04-5.06-12.06-11.22-12.06-18.47v-7.42Z"/>
        <path class="cls-2" d="M366.31,708.72c0,11.04-6.17,16.58-18.52,16.61-12.31,0-18.47-5.54-18.47-16.61v-48.27c0-11.04,6.16-16.56,18.47-16.56s18.52,5.52,18.52,16.56v48.27ZM353.44,660.45c0-3.55-1.87-5.32-5.6-5.32h-.09c-3.7,0-5.55,1.77-5.55,5.32v48.27c0,3.55,1.87,5.32,5.6,5.32s5.64-1.77,5.64-5.32v-48.27Z"/>
        <path class="cls-2" d="M400.34,644.98h19.84c11.43,0,17.15,5.54,17.15,16.61v45.72c0,11.01-5.99,16.53-17.97,16.56h-19.02v-78.89ZM413.22,656.17v56.46h5.64c3.73,0,5.6-1.77,5.6-5.32v-45.72c0-3.61-1.87-5.42-5.6-5.42h-5.64Z"/>
        <path class="cls-2" d="M448.25,644.98h33.39v11.19h-20.52v22.61h17.65v11.28h-17.65v22.57h20.52v11.24h-33.39v-78.89Z"/>
        <path class="cls-2" d="M514.3,723.87v-78.89h12.87v67.65h20.52v11.24h-33.39Z"/>
        <path class="cls-2" d="M591.33,695.89l4.18,27.98h-13.01l-2.5-16.74h-13.15l-2.55,16.74h-12.97l4.18-27.89,9.1-51h17.65l9.06,50.91ZM578.31,695.89l-4.91-32.85-4.91,32.85h9.83Z"/>
        <path class="cls-2" d="M626.35,644.98h12.87l12.19,45.77v-45.77h11.92v78.89h-12.87l-11.74-44.31v44.31h-12.37v-78.89Z"/>
        <path class="cls-2" d="M711.06,695.89l4.18,27.98h-13.01l-2.5-16.74h-13.15l-2.55,16.74h-12.97l4.18-27.89,9.1-51h17.65l9.06,50.91ZM698.05,695.89l-4.91-32.85-4.91,32.85h9.83Z"/>
        <path class="cls-2" d="M759.06,708.72c0,11.04-6.17,16.58-18.51,16.61-12.32,0-18.47-5.54-18.47-16.61v-48.27c0-11.04,6.16-16.56,18.47-16.56s18.51,5.52,18.51,16.56v10.6h-12.87v-10.6c0-3.55-1.87-5.32-5.6-5.32h-.09c-3.7,0-5.55,1.77-5.55,5.32v48.27c0,3.55,1.87,5.32,5.6,5.32s5.64-1.77,5.64-5.32v-10.6h12.87v10.6Z"/>
        <path class="cls-2" d="M769.75,644.98h12.87v78.89h-12.87v-78.89Z"/>
        <path class="cls-2" d="M831.21,708.72c0,11.04-6.17,16.58-18.52,16.61-12.31,0-18.47-5.54-18.47-16.61v-48.27c0-11.04,6.16-16.56,18.47-16.56s18.52,5.52,18.52,16.56v48.27ZM812.33,641.75h-7.14l6.46-11.51h10.1l-9.42,11.51ZM818.34,660.45c0-3.55-1.87-5.32-5.6-5.32h-.09c-3.7,0-5.55,1.77-5.55,5.32v48.27c0,3.55,1.87,5.32,5.6,5.32s5.64-1.77,5.64-5.32v-48.27Z"/>
        <path class="cls-2" d="M841.67,644.98h12.87l12.19,45.77v-45.77h11.92v78.89h-12.87l-11.74-44.31v44.31h-12.37v-78.89Z"/>
      </g>
      <g>
        <path class="cls-2" d="M192.42,193.35h103.66c59.76,0,89.63,28.93,89.63,86.78v238.95c0,57.54-31.31,86.39-93.91,86.54h-99.38V193.35ZM259.71,251.84v295.06h29.48c19.5,0,29.24-9.27,29.24-27.82v-238.95c0-18.86-9.75-28.29-29.24-28.29h-29.48Z"/>
        <path class="cls-2" d="M630.37,459.41l21.87,146.22h-68l-13.08-87.49h-68.71l-13.32,87.49h-67.76l21.87-145.74,47.55-266.53h92.25l47.32,266.05ZM562.37,459.41l-25.68-171.66-25.68,171.66h51.36Z"/>
        <path class="cls-2" d="M687.91,274.19c0-57.69,32.17-86.54,96.53-86.54s96.77,28.85,96.77,86.54v55.4h-67.29v-55.4c0-18.55-9.75-27.82-29.24-27.82h-.48c-19.34,0-29,9.27-29,27.82v37.33c0,18.39,21,40.89,63,67.52,42,26.47,63.01,58.25,63.01,95.34v52.07c0,57.86-32.18,86.78-96.53,86.78-64.51-.16-96.77-29.08-96.77-86.78v-55.4h67.29v55.4c0,18.55,9.83,27.82,29.48,27.82s29.24-9.27,29.24-27.82v-47.08c0-19.97-21-43.27-63.01-69.9-42-26.47-63-58.64-63-96.53v-38.75Z"/>
      </g>
    </g>
  </g>
</svg>